<svg width="30" height="25" viewBox="0 0 30 25" fill="none" xmlns="http://www.w3.org/2000/svg">
<g filter="url(#filter0_d_1_52)">
<path d="M3.75 12.5C3.75 10.4289 5.42893 8.75 7.5 8.75H22.5C24.5711 8.75 26.25 10.4289 26.25 12.5V17.5C26.25 18.1904 25.6904 18.75 25 18.75H22.5C21.8096 18.75 21.25 18.1904 21.25 17.5V16.25H8.75V17.5C8.75 18.1904 8.19036 18.75 7.5 18.75H5C4.30964 18.75 3.75 18.1904 3.75 17.5V12.5Z" stroke="white" stroke-width="1.875" stroke-linejoin="round"/>
<path d="M6.25 8.75L8.18019 2.95943C8.52048 1.93857 9.47582 1.25 10.5519 1.25H19.4481C20.5242 1.25 21.4795 1.93858 21.8198 2.95943L23.75 8.75" stroke="white" stroke-width="1.875" stroke-linecap="round" stroke-linejoin="round"/>
<path d="M23.75 8.75L26.25 7.5" stroke="white" stroke-width="1.875" stroke-linecap="round" stroke-linejoin="round"/>
<path d="M6.25 8.75L3.75 7.5" stroke="white" stroke-width="1.875" stroke-linecap="round" stroke-linejoin="round"/>
<path d="M7.5 12.5H10" stroke="white" stroke-width="1.875" stroke-linecap="round" stroke-linejoin="round"/>
<path d="M20 12.5H22.5" stroke="white" stroke-width="1.875" stroke-linecap="round" stroke-linejoin="round"/>
</g>
<defs>
<filter id="filter0_d_1_52" x="-1.18768" y="0.3125" width="32.3754" height="27.375" filterUnits="userSpaceOnUse" color-interpolation-filters="sRGB">
<feFlood flood-opacity="0" result="BackgroundImageFix"/>
<feColorMatrix in="SourceAlpha" type="matrix" values="0 0 0 0 0 0 0 0 0 0 0 0 0 0 0 0 0 0 127 0" result="hardAlpha"/>
<feOffset dy="4"/>
<feGaussianBlur stdDeviation="2"/>
<feComposite in2="hardAlpha" operator="out"/>
<feColorMatrix type="matrix" values="0 0 0 0 0 0 0 0 0 0 0 0 0 0 0 0 0 0 0.25 0"/>
<feBlend mode="normal" in2="BackgroundImageFix" result="effect1_dropShadow_1_52"/>
<feBlend mode="normal" in="SourceGraphic" in2="effect1_dropShadow_1_52" result="shape"/>
</filter>
</defs>
</svg>
